# xmcd
#
# Track frame offsets:
#	150
#	22763
#	40223
#	53726
#	75798
#	96928
#	115694
#	143554
#	172858
#	190597
#	208878
#
# Disc length: 2985 seconds
#
# Revision: 0
# Processed by: cddbd v1.5.2PL0 Copyright (c) Steve Scherf et al.
# Submitted via: dBpowerAMP V4.0
#
DISCID=7a0ba70b
DTITLE=Bobby Rush - Folkfunk
DYEAR=2004
DGENRE=Blues
TTITLE0=Feeling good - part one
TTITLE1=Uncle Esau
TTITLE2=Ninety-Nine
TTITLE3=Chicken Heads - Refried
TTITLE4=Ride in my automobile
TTITLE5=River´s invitation
TTITLE6=Everybody wants to know
TTITLE7=Voodoo Man
TTITLE8=Get back
TTITLE9=Saints gotta move
TTITLE10=Feeling good - part two
EXTD=
EXTT0=
EXTT1=
EXTT2=
EXTT3=
EXTT4=
EXTT5=
EXTT6=
EXTT7=
EXTT8=
EXTT9=
EXTT10=
PLAYORDER=
